<svg width="12" height="6" viewBox="0 0 12 6" fill="none" xmlns="http://www.w3.org/2000/svg">
<path d="M6 6C5.76949 6 5.57288 5.9233 5.39661 5.76401L0.223729 1.16224C0.0745764 1.03835 6.1137e-08 0.873156 6.33883e-08 0.684366C6.79613e-08 0.300885 0.338984 -1.39056e-07 0.786441 -1.3372e-07C1.00339 -1.31133e-07 1.2 0.0766958 1.34915 0.206489L6 4.35398L10.6508 0.20649C10.8068 0.0766959 11.0034 -1.18845e-08 11.2203 -9.29736e-09C11.661 -4.04233e-09 12 0.300885 12 0.684366C12 0.873157 11.9254 1.03835 11.7763 1.16224L6.60339 5.76401C6.42712 5.9233 6.23051 5.9941 6 6Z" fill="#606063"/>
</svg>
