<svg width="40" height="40" viewBox="0 0 40 40" fill="none" xmlns="http://www.w3.org/2000/svg">
<path d="M20.4431 26.9817L16.3399 26.9057C15.0113 26.8793 13.6795 26.9321 12.377 26.6579C10.3956 26.2483 10.2553 24.2399 10.1084 22.5553C9.90599 20.1868 9.98434 17.7754 10.3663 15.4268C10.5819 14.1089 11.4304 13.3226 12.7426 13.237C17.1723 12.9264 21.6314 12.9632 26.0512 13.1081C26.518 13.1214 26.988 13.194 27.4482 13.2766C29.7203 13.6797 29.7757 15.9556 29.923 17.8715C30.0698 19.8072 30.0078 21.7529 29.7271 23.6754C29.5019 25.2672 29.0709 26.6021 27.2524 26.7309C24.9738 26.8994 22.7476 27.0351 20.4626 26.9919C20.4627 26.9817 20.4496 26.9817 20.4431 26.9817ZM18.0308 22.9517C19.7479 21.954 21.4322 20.973 23.1394 19.982C21.4191 18.9844 19.738 18.0033 18.0308 17.0124V22.9517Z" fill="white"/>
<rect x="0.5" y="0.5" width="39" height="39" rx="19.5" stroke="#636366"/>
</svg>
