<svg width="20" height="18" viewBox="0 0 20 18" fill="none" xmlns="http://www.w3.org/2000/svg">
<path d="M4.14544 17.8443C4.49621 18.1157 4.9411 18.0224 5.47153 17.6408L9.99736 14.3416L14.5317 17.6408C15.0622 18.0224 15.4985 18.1157 15.8578 17.8443C16.2086 17.5814 16.2856 17.1489 16.0717 16.5298L14.2836 11.2545L18.8522 7.99773C19.3827 7.62455 19.5966 7.23442 19.4597 6.81036C19.3228 6.40327 18.9207 6.19972 18.2619 6.2082L12.6581 6.24213L10.9556 0.941408C10.7502 0.313803 10.4422 0 9.99736 0C9.56103 0 9.25304 0.313803 9.04771 0.941408L7.34518 6.24213L1.74136 6.2082C1.08259 6.19972 0.680487 6.40327 0.5436 6.81036C0.398157 7.23442 0.620598 7.62455 1.15104 7.99773L5.71964 11.2545L3.93155 16.5298C3.71767 17.1489 3.79467 17.5814 4.14544 17.8443Z" fill="#AC8E68"/>
</svg>
